<mxfile host="app.diagrams.net" modified="2025-08-20T00:00:00.000Z" agent="cursor-gpt" version="22.1.0" type="device">
  <diagram id="d1" name="High Level Davie Architecture">
    <mxGraphModel dx="1086" dy="635" grid="1" gridSize="10" guides="1" tooltips="1" connect="1" arrows="1" fold="1" page="1" pageScale="1" pageWidth="1100" pageHeight="850" math="0" shadow="0">
      <root>
        <mxCell id="0"/>
        <mxCell id="1" parent="0"/>
        <mxCell id="2" value="This is a placeholder draw.io file.\nTo view the full architecture diagram, import the Mermaid file at:\n`capstone_hierarchical_rag/architecture.mmd`\n(File → Import → Device)" style="text;whiteSpace=wrap;html=1;fontSize=14;align=left;verticalAlign=top;" vertex="1" parent="1">
          <mxGeometry x="120" y="120" width="760" height="160" as="geometry"/>
        </mxCell>
      </root>
    </mxGraphModel>
  </diagram>
</mxfile> 